<svg xmlns="http://www.w3.org/2000/svg" version="1.1" xmlns:xlink="http://www.w3.org/1999/xlink" xmlns:svgjs="http://svgjs.dev/svgjs" width="100%" height="100%" viewBox="0 0 1000 600"><rect width="1000" height="600" x="0" y="0" fill="#00214d"/><g><circle r="166.66666666666666" cx="332.05959574381507" cy="354.28183736459414" fill="#8aaae5" transform="matrix(0.7557758917823395,0,0,0.7557758917823395,0,32.24233229694079)"/><path d="M307.8195689839962 429.2818447796332L238.76820372352051 429.2818447796332Q231.7713481164818 429.2818447796332 229.33424110728853 425.6916978951227Q226.87092864638353 422.12775646232393 226.87092864638353 417.77765147817246L226.87092864638353 417.77765147817246L226.87092864638353 290.60259432102305Q226.87092864638353 286.27869478858344 229.33424110728853 282.7671642592082Q231.7713481164818 279.2818391815447 238.76820372352051 279.2818391815447L238.76820372352051 279.2818391815447L304.41286026146804 279.2818391815447Q311.40971586850674 279.2818391815447 311.7765921924713 288.7158017977767L311.7765921924713 288.7158017977767Q312.16967396814766 298.333202575991 304.41286026146804 298.333202575991L304.41286026146804 298.333202575991L249.1455626013757 298.333202575991L249.1455626013757 410.2304813851869L307.8195689839962 410.2304813851869Q314.7902191393232 410.2304813851869 314.9998627530173 419.4810058394366L314.9998627530173 419.4810058394366Q315.36673907698184 429.2818447796332 307.8195689839962 429.2818447796332L307.8195689839962 429.2818447796332ZM297.44221010614103 351.16339322689004L297.44221010614103 351.16339322689004Q297.44221010614103 357.7671670582525 292.8300506048721 362.3007102043861Q288.19168565189136 366.83425335051976 281.58791182052903 366.83425335051976L281.58791182052903 366.83425335051976Q275.16757615114886 366.83425335051976 270.6602384567269 362.3007102043861Q266.1266953105933 357.7671670582525 266.1266953105933 351.16339322689004L266.1266953105933 351.16339322689004Q266.1266953105933 344.5596193955277 270.6602384567269 340.05228170110576Q275.16757615114886 335.518738554972 281.58791182052903 335.518738554972L281.58791182052903 335.518738554972Q288.19168565189136 335.518738554972 292.8300506048721 340.05228170110576Q297.44221010614103 344.5596193955277 297.44221010614103 351.16339322689004ZM370.45059857509193 342.88247048597526L406.87617645443197 342.88247048597526Q411.7765959245303 342.88247048597526 417.07009717030485 344.95270117120396Q422.3373929643677 347.02293185643265 427.26401788617784 350.4296405789609L427.26401788617784 350.4296405789609L427.05437427248376 350.4296405789609Q431.98099919429376 353.8101438497774 434.6015443654693 359.6539595814988Q437.24829498835663 365.523980764932 437.24829498835663 373.07115085791764L437.24829498835663 373.07115085791764L437.24829498835663 398.90972624570855Q437.24829498835663 414.187504593662 427.05437427248376 421.73467468664757L427.05437427248376 421.73467468664757Q422.15395480238544 425.3248215711581 416.96527536345786 427.3164359012515Q411.7765959245303 429.2818447796332 406.87617645443197 429.2818447796332L406.87617645443197 429.2818447796332L365.7336172669759 429.2818447796332Q360.8331977968776 429.2818447796332 355.64451835795 427.3164359012515Q350.4558389190224 425.3248215711581 345.5554194489241 421.73467468664757L345.5554194489241 421.73467468664757Q335.36149873305123 414.187504593662 335.36149873305123 398.90972624570855L335.36149873305123 398.90972624570855L335.36149873305123 386.4621366826247Q335.36149873305123 377.5784885523396 346.4988157105473 377.5784885523396L346.4988157105473 377.5784885523396Q357.8195708500257 377.5784885523396 357.8195708500257 386.4621366826247L357.8195708500257 386.4621366826247L357.8195708500257 397.3898100464267Q357.8195708500257 402.3164349682368 360.6497596348953 406.2734581767118Q363.4799484197649 410.2304813851869 370.45059857509193 410.2304813851869L370.45059857509193 410.2304813851869L402.15919514631605 410.2304813851869Q409.12984530164294 410.2304813851869 411.96003408651256 406.2734581767118Q414.7902228713822 402.3164349682368 414.7902228713822 397.3898100464267L414.7902228713822 397.3898100464267L414.7902228713822 374.5648616054877Q414.7902228713822 369.84788029737166 411.96003408651256 365.7860352820497Q409.12984530164294 361.7503957184393 402.15919514631605 361.7503957184393L402.15919514631605 361.7503957184393L365.7336172669759 361.7503957184393Q355.9327783267794 361.7503957184393 345.5554194489241 354.5701019494183L345.5554194489241 354.5701019494183Q335.36149873305123 346.6560555324681 335.36149873305123 331.7451535084792L335.36149873305123 331.7451535084792L335.36149873305123 309.2870813915048Q335.36149873305123 301.73991129851913 338.0082493559386 295.97471192193296Q340.6549999788259 290.2357179970585 345.5554194489241 286.645571112548L345.5554194489241 286.645571112548L345.37198128694183 286.645571112548Q350.27240075704015 283.4485060037139 355.5659020028147 281.3520698667734Q360.8331977968776 279.2818391815447 365.7336172669759 279.2818391815447L365.7336172669759 279.2818391815447L406.87617645443197 279.2818391815447Q411.7765959245303 279.2818391815447 417.07009717030485 281.3520698667734Q422.3373929643677 283.4485060037139 427.26401788617784 286.645571112548L427.26401788617784 286.645571112548L427.05437427248376 286.645571112548Q431.98099919429376 290.2357179970585 434.6015443654693 295.97471192193296Q437.24829498835663 301.73991129851913 437.24829498835663 309.2870813915048L437.24829498835663 309.2870813915048L437.24829498835663 320.4243983690008Q437.24829498835663 329.28184104757423 425.92753984887827 329.28184104757423L425.92753984887827 329.28184104757423Q414.7902228713822 329.28184104757423 414.7902228713822 320.4243983690008L414.7902228713822 320.4243983690008L414.7902228713822 310.99043575276886Q414.7902228713822 306.2734544446529 411.96003408651256 302.3164312361778Q409.12984530164294 298.333202575991 402.15919514631605 298.333202575991L402.15919514631605 298.333202575991L370.45059857509193 298.333202575991Q363.4799484197649 298.333202575991 360.6497596348953 302.3164312361778Q357.8195708500257 306.2734544446529 357.8195708500257 310.99043575276886L357.8195708500257 310.99043575276886L357.8195708500257 330.22523730919744Q357.8195708500257 335.12565677929564 360.6497596348953 339.00406363263545Q363.4799484197649 342.88247048597526 370.45059857509193 342.88247048597526L370.45059857509193 342.88247048597526Z " fill="#FFFF" transform="matrix(0.7557758917823395,0,0,0.7557758917823395,0,32.24233229694079)"/><path d="M643.6046753889841 298.9299095059926L643.6046753889841 420.0114545703703Q643.6046753889841 428.92132581500545 632.4802118696708 428.92132581500545L632.4802118696708 428.92132581500545Q621.5617569340485 428.92132581500545 621.5617569340485 420.0114545703703L621.5617569340485 420.0114545703703L621.5617569340485 298.9299095059926L589.1154050027179 298.9299095059926Q582.4201260327609 298.9299095059926 582.0596110113016 289.47926572916856L582.0596110113016 289.47926572916856Q582.0596110113016 280.20887946307414 589.1154050027179 280.20887946307414L589.1154050027179 280.20887946307414L676.0510273203146 280.20887946307414Q683.1068213117309 280.20887946307414 682.7463062902716 289.47926572916856L682.7463062902716 289.47926572916856Q682.7463062902716 298.9299095059926 676.0510273203146 298.9299095059926L676.0510273203146 298.9299095059926L643.6046753889841 298.9299095059926ZM727.4244178782545 280.20887946307414L746.8922290370527 280.20887946307414Q751.5274221701 280.20887946307414 756.703387835336 282.24321422702263Q761.9051045735334 284.3033000639325 766.7205552173103 287.44493096522007L766.7205552173103 287.44493096522007L766.5402977065806 287.44493096522007Q771.3557483503574 290.9728279609282 773.9566067194562 296.612312939469Q776.5574650885549 302.2775489909711 776.5574650885549 309.6938580038467L776.5574650885549 309.6938580038467L776.5574650885549 397.76252753174373Q776.5574650885549 405.53935156607844 773.9566067194562 411.024330106851Q771.3557483503574 416.48355757466214 766.5402977065806 420.19171208109987L766.5402977065806 420.19171208109987Q761.7248470628039 423.719609076808 756.703387835336 425.6766906218724Q751.7076796808295 427.6080210939754 746.8922290370527 427.6080210939754L746.8922290370527 427.6080210939754L727.4244178782545 427.6080210939754Q722.6089672344776 427.6080210939754 717.5102547881257 425.6766906218724Q712.4115423417738 423.719609076808 707.5703406250356 420.19171208109987L707.5703406250356 420.19171208109987Q702.7548899812588 416.48355757466214 700.076778393276 411.024330106851Q697.3729157323318 405.53935156607844 697.3729157323318 397.76252753174373L697.3729157323318 397.76252753174373L697.3729157323318 309.6938580038467Q697.3729157323318 302.2775489909711 700.076778393276 296.612312939469Q702.7548899812588 290.9728279609282 707.5703406250356 287.44493096522007L707.5703406250356 287.44493096522007L707.390083114306 287.44493096522007Q712.2055337580828 284.3033000639325 717.4072504962802 282.24321422702263Q722.6089672344776 280.20887946307414 727.4244178782545 280.20887946307414L727.4244178782545 280.20887946307414ZM731.879353500572 408.886991051057L742.076778393276 408.886991051057Q748.9265638010012 408.886991051057 751.8106839726751 404.9985790338896Q754.6690530713876 401.1101670167222 754.6690530713876 396.268965299984L754.6690530713876 396.268965299984L754.6690530713876 311.36767774633597Q754.6690530713876 306.73248461328876 751.8106839726751 302.84407259612135Q748.9265638010012 298.9299095059926 742.076778393276 298.9299095059926L742.076778393276 298.9299095059926L731.879353500572 298.9299095059926Q725.0038170198853 298.9299095059926 722.145447921173 302.84407259612135Q719.2613277494992 306.73248461328876 719.2613277494992 311.36767774633597L719.2613277494992 311.36767774633597L719.2613277494992 396.268965299984Q719.2613277494992 401.1101670167222 722.145447921173 404.9985790338896Q725.0038170198853 408.886991051057 731.879353500572 408.886991051057L731.879353500572 408.886991051057ZM904.3085380499283 288.1917120810999L904.3085380499283 397.76252753174373Q904.3085380499283 412.7754030682244 894.2913706679541 420.19171208109987L894.2913706679541 420.19171208109987Q889.4759200241772 423.719609076808 884.3772075778253 425.6766906218724Q879.2784951314734 427.6080210939754 874.4372934147351 427.6080210939754L874.4372934147351 427.6080210939754L834.0338599383404 427.6080210939754Q829.2184092945635 427.6080210939754 824.1196968482116 425.6766906218724Q819.0209844018597 423.719609076808 814.1797826851214 420.19171208109987L814.1797826851214 420.19171208109987Q809.3643320413446 416.48355757466214 806.7634736722459 411.024330106851Q804.1883663761085 405.53935156607844 804.1883663761085 397.76252753174373L804.1883663761085 397.76252753174373L804.1883663761085 288.1917120810999Q804.1883663761085 279.2818408364647 815.1068213117309 279.2818408364647L815.1068213117309 279.2818408364647Q826.2312848310443 279.2818408364647 826.2312848310443 288.1917120810999L826.2312848310443 288.1917120810999L826.2312848310443 396.268965299984Q826.2312848310443 401.1101670167222 829.0124007108725 404.9985790338896Q831.7935165907008 408.886991051057 838.6690530713876 408.886991051057L838.6690530713876 408.886991051057L869.802100281688 408.886991051057Q876.6776367623746 408.886991051057 879.458752642203 404.9985790338896Q882.2398685220313 401.1101670167222 882.2398685220313 396.268965299984L882.2398685220313 396.268965299984L882.2398685220313 288.1917120810999Q882.2398685220313 279.2818408364647 893.184074530615 279.2818408364647L893.184074530615 279.2818408364647Q904.3085380499283 279.2818408364647 904.3085380499283 288.1917120810999L904.3085380499283 288.1917120810999ZM1020.1883663761085 425.2131713085677L985.1411560756794 366.4234717377523L970.849310582117 366.4234717377523Q967.7076796808295 366.4234717377523 965.9566067194561 363.9256176604991Q964.1797826851215 361.42776358324585 964.1797826851215 357.1530854716579L964.1797826851215 357.1530854716579Q964.1797826851215 347.7024416948338 971.9823577924175 347.7024416948338L971.9823577924175 347.7024416948338L993.6647612258939 347.7024416948338Q1000.5145466336193 347.7024416948338 1003.2956625134476 343.8140296776665Q1006.076778393276 339.9256176604991 1006.076778393276 335.2904245274519L1006.076778393276 335.2904245274519L1006.076778393276 311.36767774633597Q1006.076778393276 306.73248461328876 1003.2956625134476 302.84407259612135Q1000.5145466336193 298.9299095059926 993.6647612258939 298.9299095059926L993.6647612258939 298.9299095059926L954.5488813975677 298.9299095059926L954.5488813975677 419.8311970596407Q954.5488813975677 428.7153172313145 943.6046753889841 428.7153172313145L943.6046753889841 428.7153172313145Q932.6604693804004 428.7153172313145 932.6604693804004 419.8311970596407L932.6604693804004 419.8311970596407L932.6604693804004 291.3333429823874Q932.6604693804004 284.6638150853918 936.085362084263 282.44922281071365Q939.5360058610871 280.20887946307414 944.3514565048639 280.20887946307414L944.3514565048639 280.20887946307414L998.2999543589411 280.20887946307414Q1003.1154050027179 280.20887946307414 1008.3171217409155 282.24321422702263Q1013.4930874061515 284.3033000639325 1018.3342891228897 287.44493096522007L1018.3342891228897 287.44493096522007L1018.1282805391987 287.44493096522007Q1022.9694822559369 290.9728279609282 1025.5445895520743 296.612312939469Q1028.145447921173 302.2775489909711 1028.145447921173 309.6938580038467L1028.145447921173 309.6938580038467L1028.145447921173 336.7582356862501Q1028.145447921173 351.7711112227308 1018.1282805391987 359.18742023560634L1018.1282805391987 359.18742023560634Q1016.0939457752502 360.68098246736605 1013.7763492087266 361.9685361154347Q1011.458752642203 363.2818408364647 1009.0639028567953 364.56939448453346L1009.0639028567953 364.56939448453346L1038.7291389082975 413.5221841841042Q1039.2699114404863 414.4492228107136 1039.8364350456363 415.9427850424733Q1040.3772075778252 417.41059620127163 1040.3772075778252 418.337634827881L1040.3772075778252 418.337634827881Q1040.3772075778252 422.79257045019864 1034.0939457752502 426.8612399780956L1034.0939457752502 426.8612399780956L1034.0939457752502 426.68098246736605Q1029.8192676636622 429.2818408364647 1026.8578942731042 429.2818408364647L1026.8578942731042 429.2818408364647Q1022.5832161615164 429.2818408364647 1019.9823577924175 425.00716272487676L1019.9823577924175 425.00716272487676L1020.1883663761085 425.2131713085677ZM1092.1111131572243 342.70673354032743L1127.9051045735337 342.70673354032743Q1132.7205552173104 342.70673354032743 1137.9222719555078 344.74106830427587Q1143.098237620744 346.7754030682244 1147.9136882645207 350.1230425532029L1147.9136882645207 350.1230425532029L1147.7334307537913 350.1230425532029Q1152.548881397568 353.44493096522007 1155.1497397666667 359.18742023560634Q1157.7505981357654 364.955660578954 1157.7505981357654 372.37196959182955L1157.7505981357654 372.37196959182955L1157.7505981357654 397.76252753174373Q1157.7505981357654 412.7754030682244 1147.7334307537913 420.19171208109987L1147.7334307537913 420.19171208109987Q1142.917980110014 423.719609076808 1137.8192676636622 425.6766906218724Q1132.7205552173104 427.6080210939754 1127.9051045735337 427.6080210939754L1127.9051045735337 427.6080210939754L1087.4759200241774 427.6080210939754Q1082.6604693804006 427.6080210939754 1077.5617569340484 425.6766906218724Q1072.4630444876966 423.719609076808 1067.6475938439198 420.19171208109987L1067.6475938439198 420.19171208109987Q1057.6304264619457 412.7754030682244 1057.6304264619457 397.76252753174373L1057.6304264619457 397.76252753174373L1057.6304264619457 385.5307678750914Q1057.6304264619457 376.8011541411858 1068.5746324705292 376.8011541411858L1068.5746324705292 376.8011541411858Q1079.6990959898426 376.8011541411858 1079.6990959898426 385.5307678750914L1079.6990959898426 385.5307678750914L1079.6990959898426 396.268965299984Q1079.6990959898426 401.1101670167222 1082.4802118696707 404.9985790338896Q1085.2613277494993 408.886991051057 1092.1111131572243 408.886991051057L1092.1111131572243 408.886991051057L1123.2699114404863 408.886991051057Q1130.1196968482118 408.886991051057 1132.90081272804 404.9985790338896Q1135.6819286078685 401.1101670167222 1135.6819286078685 396.268965299984L1135.6819286078685 396.268965299984L1135.6819286078685 373.83978075062777Q1135.6819286078685 369.20458761758056 1132.90081272804 365.2131713085677Q1130.1196968482118 361.2475060725163 1123.2699114404863 361.2475060725163L1123.2699114404863 361.2475060725163L1087.4759200241774 361.2475060725163Q1077.8450187366238 361.2475060725163 1067.6475938439198 354.19171208109987L1067.6475938439198 354.19171208109987Q1057.6304264619457 346.41488804676516 1057.6304264619457 331.76252753174373L1057.6304264619457 331.76252753174373L1057.6304264619457 309.6938580038467Q1057.6304264619457 302.2775489909711 1060.2312848310444 296.612312939469Q1062.832143200143 290.9728279609282 1067.6475938439198 287.44493096522007L1067.6475938439198 287.44493096522007L1067.4673363331904 287.44493096522007Q1072.2827869769667 284.3033000639325 1077.4587526422029 282.24321422702263Q1082.6604693804006 280.20887946307414 1087.4759200241774 280.20887946307414L1087.4759200241774 280.20887946307414L1127.9051045735337 280.20887946307414Q1132.7205552173104 280.20887946307414 1137.9222719555078 282.24321422702263Q1143.098237620744 284.3033000639325 1147.9136882645207 287.44493096522007L1147.9136882645207 287.44493096522007L1147.7334307537913 287.44493096522007Q1152.548881397568 290.9728279609282 1155.1497397666667 296.612312939469Q1157.7505981357654 302.2775489909711 1157.7505981357654 309.6938580038467L1157.7505981357654 309.6938580038467L1157.7505981357654 320.63806401243045Q1157.7505981357654 329.34192667337464 1146.626134616452 329.34192667337464L1146.626134616452 329.34192667337464Q1135.6819286078685 329.34192667337464 1135.6819286078685 320.63806401243045L1135.6819286078685 320.63806401243045L1135.6819286078685 311.36767774633597Q1135.6819286078685 306.73248461328876 1132.90081272804 302.84407259612135Q1130.1196968482118 298.9299095059926 1123.2699114404863 298.9299095059926L1123.2699114404863 298.9299095059926L1092.1111131572243 298.9299095059926Q1085.2613277494993 298.9299095059926 1082.4802118696707 302.84407259612135Q1079.6990959898426 306.73248461328876 1079.6990959898426 311.36767774633597L1079.6990959898426 311.36767774633597L1079.6990959898426 330.268965299984Q1079.6990959898426 335.0844159437609 1082.4802118696707 338.8955747420442Q1085.2613277494993 342.70673354032743 1092.1111131572243 342.70673354032743L1092.1111131572243 342.70673354032743Z " fill="#8aaae5" transform="matrix(0.7557758917823395,0,0,0.7557758917823395,0,32.24233229694079)"/></g></svg>